<svg width="763" height="174" viewBox="0 0 763 174" fill="none" xmlns="http://www.w3.org/2000/svg">
<g clip-path="url(#clip0_1_2)">
<path d="M120.072 59.808C128.947 59.808 135.987 62.496 141.192 67.872C146.483 73.248 149.128 80.7147 149.128 90.272V132H127.368V93.216C127.368 88.608 126.131 85.0667 123.656 82.592C121.267 80.032 117.939 78.752 113.672 78.752C109.405 78.752 106.035 80.032 103.56 82.592C101.171 85.0667 99.976 88.608 99.976 93.216V132H78.216V93.216C78.216 88.608 76.9787 85.0667 74.504 82.592C72.1147 80.032 68.7867 78.752 64.52 78.752C60.2533 78.752 56.8827 80.032 54.408 82.592C52.0187 85.0667 50.824 88.608 50.824 93.216V132H28.936V60.576H50.824V69.536C53.0427 66.5493 55.944 64.2027 59.528 62.496C63.112 60.704 67.1653 59.808 71.688 59.808C77.064 59.808 81.8427 60.96 86.024 63.264C90.2907 65.568 93.6187 68.8533 96.008 73.12C98.4827 69.1947 101.853 65.9947 106.12 63.52C110.387 61.0453 115.037 59.808 120.072 59.808ZM169.044 96.16C169.044 88.8213 170.409 82.3787 173.14 76.832C175.956 71.2853 179.753 67.0187 184.532 64.032C189.311 61.0453 194.644 59.552 200.532 59.552C205.567 59.552 209.961 60.576 213.716 62.624C217.556 64.672 220.5 67.36 222.548 70.688V60.576H244.436V132H222.548V121.888C220.415 125.216 217.428 127.904 213.588 129.952C209.833 132 205.439 133.024 200.404 133.024C194.601 133.024 189.311 131.531 184.532 128.544C179.753 125.472 175.956 121.163 173.14 115.616C170.409 109.984 169.044 103.499 169.044 96.16ZM222.548 96.288C222.548 90.8267 221.012 86.5173 217.94 83.36C214.953 80.2027 211.284 78.624 206.932 78.624C202.58 78.624 198.868 80.2027 195.796 83.36C192.809 86.432 191.316 90.6987 191.316 96.16C191.316 101.621 192.809 105.973 195.796 109.216C198.868 112.373 202.58 113.952 206.932 113.952C211.284 113.952 214.953 112.373 217.94 109.216C221.012 106.059 222.548 101.749 222.548 96.288ZM291.119 72.48C293.679 68.5547 296.879 65.4827 300.719 63.264C304.559 60.96 308.826 59.808 313.519 59.808V82.976H307.503C302.042 82.976 297.946 84.1707 295.215 86.56C292.484 88.864 291.119 92.96 291.119 98.848V132H269.231V60.576H291.119V72.48ZM376.589 132L354.829 102.048V132H332.941V37.28H354.829V89.632L376.461 60.576H403.469L373.773 96.416L403.725 132H376.589ZM488.354 95.136C488.354 97.184 488.226 99.3173 487.97 101.536H438.434C438.775 105.973 440.183 109.387 442.658 111.776C445.218 114.08 448.333 115.232 452.002 115.232C457.463 115.232 461.261 112.928 463.394 108.32H486.69C485.495 113.013 483.319 117.237 480.162 120.992C477.09 124.747 473.207 127.691 468.514 129.824C463.821 131.957 458.573 133.024 452.77 133.024C445.773 133.024 439.543 131.531 434.082 128.544C428.621 125.557 424.354 121.291 421.282 115.744C418.21 110.197 416.674 103.712 416.674 96.288C416.674 88.864 418.167 82.3787 421.154 76.832C424.226 71.2853 428.493 67.0187 433.954 64.032C439.415 61.0453 445.687 59.552 452.77 59.552C459.682 59.552 465.826 61.0027 471.202 63.904C476.578 66.8053 480.759 70.944 483.746 76.32C486.818 81.696 488.354 87.968 488.354 95.136ZM465.954 89.376C465.954 85.6213 464.674 82.6347 462.114 80.416C459.554 78.1973 456.354 77.088 452.514 77.088C448.845 77.088 445.73 78.1547 443.17 80.288C440.695 82.4213 439.159 85.4507 438.562 89.376H465.954ZM548.669 113.44V132H537.533C529.597 132 523.41 130.08 518.973 126.24C514.536 122.315 512.317 115.957 512.317 107.168V78.752H503.613V60.576H512.317V43.168H534.205V60.576H548.541V78.752H534.205V107.424C534.205 109.557 534.717 111.093 535.741 112.032C536.765 112.971 538.472 113.44 540.861 113.44H548.669ZM591.709 42.144V132H569.821V42.144H591.709ZM660.051 59.808C668.414 59.808 675.07 62.5387 680.019 68C685.054 73.376 687.571 80.8 687.571 90.272V132H665.811V93.216C665.811 88.4373 664.574 84.7253 662.099 82.08C659.624 79.4347 656.296 78.112 652.115 78.112C647.934 78.112 644.606 79.4347 642.131 82.08C639.656 84.7253 638.419 88.4373 638.419 93.216V132H616.531V60.576H638.419V70.048C640.638 66.8907 643.624 64.416 647.379 62.624C651.134 60.7467 655.358 59.808 660.051 59.808ZM721.981 133.024C718.141 133.024 714.984 131.915 712.509 129.696C710.12 127.392 708.925 124.576 708.925 121.248C708.925 117.835 710.12 114.976 712.509 112.672C714.984 110.368 718.141 109.216 721.981 109.216C725.736 109.216 728.808 110.368 731.197 112.672C733.672 114.976 734.909 117.835 734.909 121.248C734.909 124.576 733.672 127.392 731.197 129.696C728.808 131.915 725.736 133.024 721.981 133.024Z" fill="url(#paint0_linear_1_2)"/>
</g>
<defs>
<linearGradient id="paint0_linear_1_2" x1="21" y1="87" x2="740" y2="87" gradientUnits="userSpaceOnUse">
<stop stop-color="#5EA3F9"/>
<stop offset="1" stop-color="#2765EB"/>
</linearGradient>
<clipPath id="clip0_1_2">
<rect width="763" height="174" fill="white"/>
</clipPath>
</defs>
</svg>
