<svg width="200" height="200" viewBox="0 0 200 200" fill="none" xmlns="http://www.w3.org/2000/svg">
<path d="M113.072 72.808C121.947 72.808 128.987 75.496 134.192 80.872C139.483 86.248 142.128 93.7147 142.128 103.272V145H120.368V106.216C120.368 101.608 119.131 98.0667 116.656 95.592C114.267 93.032 110.939 91.752 106.672 91.752C102.405 91.752 99.0347 93.032 96.56 95.592C94.1707 98.0667 92.976 101.608 92.976 106.216V145H71.216V106.216C71.216 101.608 69.9787 98.0667 67.504 95.592C65.1147 93.032 61.7867 91.752 57.52 91.752C53.2533 91.752 49.8827 93.032 47.408 95.592C45.0187 98.0667 43.824 101.608 43.824 106.216V145H21.936V73.576H43.824V82.536C46.0427 79.5493 48.944 77.2027 52.528 75.496C56.112 73.704 60.1653 72.808 64.688 72.808C70.064 72.808 74.8427 73.96 79.024 76.264C83.2907 78.568 86.6187 81.8533 89.008 86.12C91.4827 82.1947 94.8533 78.9947 99.12 76.52C103.387 74.0453 108.037 72.808 113.072 72.808ZM167.676 146.024C163.836 146.024 160.679 144.915 158.204 142.696C155.815 140.392 154.62 137.576 154.62 134.248C154.62 130.835 155.815 127.976 158.204 125.672C160.679 123.368 163.836 122.216 167.676 122.216C171.431 122.216 174.503 123.368 176.892 125.672C179.367 127.976 180.604 130.835 180.604 134.248C180.604 137.576 179.367 140.392 176.892 142.696C174.503 144.915 171.431 146.024 167.676 146.024Z" fill="url(#paint0_linear_1_6)"/>
<defs>
<linearGradient id="paint0_linear_1_6" x1="14" y1="100" x2="186" y2="100" gradientUnits="userSpaceOnUse">
<stop stop-color="#5EA3F9"/>
<stop offset="1" stop-color="#2765EB"/>
</linearGradient>
</defs>
</svg>
